<svg xmlns="http://www.w3.org/2000/svg" viewBox="0 0 240 240"><defs><style>.a{fill:none;stroke:#000;stroke-linecap:round;stroke-linejoin:round;stroke-width:32px}</style></defs><title>daticon-create-new-dat</title><path d="M120 238.89a10 10 0 0 1-5-1.34l-94.36-54.39a10 10 0 0 1-5-8.67l.06-108.88a10 10 0 0 1 5-8.65l94.39-54.5a10 10 0 0 1 10 0l14.63 8.44a10 10 0 0 1-10 17.33l-9.63-5.55-84.4 48.71-.06 97.34L120 217.34l84.4-48.73v-11.12a10 10 0 0 1 10-10 10 10 0 0 1 10 10v16.89a10 10 0 0 1-5 8.65L125 237.55a10 10 0 0 1-5 1.34z"/><path class="a" d="M181.63 37.11v84m-42-42h84"/></svg>