<svg xmlns="http://www.w3.org/2000/svg" viewBox="0 0 240 240"><defs><style>.a{fill:none;stroke:#000;stroke-linecap:round;stroke-linejoin:round;stroke-width:20px}</style></defs><title>daticon-edit-dat</title><path class="a" d="M134.72 19.55l-14.63-8.44-94.39 54.5-.07 108.89 94.33 54.39 94.4-54.5.01-42.89"/><path d="M86.81 123v39.88h39.89L235.51 54.1a6 6 0 0 0 0-8.49l-31.4-31.4a6 6 0 0 0-8.49 0zm34.34 26.59h-7.75v-13.26h-13.3v-7.75l16.06-16.06 21 21.05zm80.8-115.1L133.48 103q-2.35 2.36-4.57.14t.14-4.57l68.47-68.47q2.35-2.36 4.57-.14c1.48 1.43 1.42 2.96-.14 4.53z"/></svg>