<svg xmlns="http://www.w3.org/2000/svg" viewBox="0 0 240 240"><defs><style>.a{stroke:#000;stroke-linecap:round;stroke-miterlimit:10;stroke-width:16px;}</style></defs><title>delete</title><path class="a" d="M56,90H165.89A18.11,18.11,0,0,1,184,108.11v71.78A18.11,18.11,0,0,1,165.89,198H56a0,0,0,0,1,0,0V90A0,0,0,0,1,56,90Z" transform="translate(264 24) rotate(90)"/><path class="a" d="M54,46.11V52H186V46.11c0-5-17.81-6.11-33.81-10.11-12-4-11-8-16-8h-32c-5,0-4,4-16,8C72.19,40,54,41.11,54,46.11Z"/></svg>