<svg xmlns="http://www.w3.org/2000/svg" xmlns:xlink="http://www.w3.org/1999/xlink" style="display:none"><symbol  viewBox='0 0 240 240' id='daticon-clipboard'>
    <defs><style>.a{fill:none}.a,.b{stroke:#000;stroke-linecap:round;stroke-linejoin:round;stroke-width:16px}</style></defs><title>daticon-clipboard</title><rect class="a" x="40" y="24" width="148.96" height="172" rx="10" ry="10"></rect><path class="a" d="M86.48 55.99h56V56h-56z"></path><path class="b" d="M210.07 198.6l-52.5 30.39-52.5-30.39v-60.78l52.5-30.39 52.5 30.39v60.78z"></path>
  </symbol><symbol  viewBox='0 0 240 240' id='daticon-create-new-dat'>
    <defs><style>.a{fill:none;stroke:#000;stroke-linecap:round;stroke-linejoin:round;stroke-width:32px}</style></defs><title>daticon-create-new-dat</title><path d="M120 238.89a10 10 0 0 1-5-1.34l-94.36-54.39a10 10 0 0 1-5-8.67l.06-108.88a10 10 0 0 1 5-8.65l94.39-54.5a10 10 0 0 1 10 0l14.63 8.44a10 10 0 0 1-10 17.33l-9.63-5.55-84.4 48.71-.06 97.34L120 217.34l84.4-48.73v-11.12a10 10 0 0 1 10-10 10 10 0 0 1 10 10v16.89a10 10 0 0 1-5 8.65L125 237.55a10 10 0 0 1-5 1.34z"></path><path class="a" d="M181.63 37.11v84m-42-42h84"></path>
  </symbol><symbol  viewBox='0 0 240 240' id='daticon-download'>
    <title>daticon-download</title><path d="M215 196.73a11 11 0 0 1-11 11H36a11 11 0 0 1-11-11v-36.54a11 11 0 0 1 11-11h53.1l15.41 15.53a22 22 0 0 0 31.06 0l15.53-15.53h53a11 11 0 0 1 11 11zm-38.71-93.51l-51.15 51.15a7.17 7.17 0 0 1-10.28 0l-51.15-51.15a7.19 7.19 0 0 1-1.6-8 7.4 7.4 0 0 1 6.74-4.45h29.23V39.62a7.36 7.36 0 0 1 7.31-7.31h29.23a7.36 7.36 0 0 1 7.31 7.31v51.15h29.23a7.4 7.4 0 0 1 6.74 4.45 7.19 7.19 0 0 1-1.61 8zm16.78 75.25a7.31 7.31 0 1 0 7.31 7.31 7.36 7.36 0 0 0-7.3-7.32z"></path>
  </symbol><symbol  viewBox='0 0 240 240' id='daticon-edit-dat'>
    <defs><style>.a{fill:none;stroke:#000;stroke-linecap:round;stroke-linejoin:round;stroke-width:20px}</style></defs><title>daticon-edit-dat</title><path class="a" d="M134.72 19.55l-14.63-8.44-94.39 54.5-.07 108.89 94.33 54.39 94.4-54.5.01-42.89"></path><path d="M86.81 123v39.88h39.89L235.51 54.1a6 6 0 0 0 0-8.49l-31.4-31.4a6 6 0 0 0-8.49 0zm34.34 26.59h-7.75v-13.26h-13.3v-7.75l16.06-16.06 21 21.05zm80.8-115.1L133.48 103q-2.35 2.36-4.57.14t.14-4.57l68.47-68.47q2.35-2.36 4.57-.14c1.48 1.43 1.42 2.96-.14 4.53z"></path>
  </symbol><symbol  viewBox='0 0 240 240' id='daticon-file'>
    <defs><style>.a,.b,.c{fill:none;stroke:#000;stroke-linecap:round;stroke-linejoin:round}.a{stroke-width:12px}.b{stroke-width:16px}.c{stroke-width:14px}</style></defs><title>daticon-file</title><path class="a" d="M95.55 162.99h64v.01h-64zm0-22h64v.01h-64zm0-22h64v.01h-64z"></path><path class="b" d="M143.61 30H63.07c-5.5 0-13.46 1.5-13.46 7v152c0 5.5 8 13 13.46 13H192c5.5 0 6.58-7.5 6.58-13V86z"></path><path class="c" d="M200.06 88.45h-58.57V29.88"></path>
  </symbol><symbol  viewBox='0 0 240 240' id='daticon-folder'>
    <defs><style>.a{fill:none;stroke:#000;stroke-linecap:round;stroke-linejoin:round;stroke-width:16px}</style></defs><title>daticon-folder</title><path class="a" d="M210 195.41H30V44.59h72.97v24.64H210v126.18z"></path>
  </symbol><symbol  viewBox='0 0 240 240' id='daticon-hexagon-outlines'>
    <defs><style>.a{fill:none;stroke:#000;stroke-linecap:round;stroke-linejoin:round;stroke-width:18px}</style></defs><title>daticon-hexagon-outlines</title><path class="a" d="M118.53 231l-95.99-55.5v-111L118.53 9l96 55.5v111l-96 55.5"></path>
  </symbol><symbol  viewBox='0 0 240 240' id='daticon-import-dat'>
    <defs><style>.a,.b{fill:none;stroke:#000;stroke-linecap:round;stroke-linejoin:round}.a{stroke-width:28px}.b{stroke-width:20px}</style></defs><title>daticon-import-dat</title><path class="a" d="M133.01 120H14m119.01 0L96 83m37.01 37L96 157"></path><path class="b" d="M50.89 201.11L59.5 216h111l55.5-96-55.5-96h-111l-8.61 14.89"></path>
  </symbol><symbol  viewBox='0 0 240 240' id='daticon-link'>
    <defs><style>.a{fill:none;stroke:#000;stroke-linecap:round;stroke-miterlimit:10;stroke-width:24px}</style></defs><title>daticon-link</title><path class="a" d="M88 120h64"></path><path d="M108.28 155H70a35 35 0 0 1 0-70h38.28V65H70a55 55 0 0 0 0 110h38.28zM170 65h-37.72v20H170a35 35 0 0 1 0 70h-37.72v20H170a55 55 0 0 0 0-110z"></path>
  </symbol><symbol  viewBox='0 0 240 240' id='daticon-loading'>
    <title>daticon-loading</title><path d="M189.61 132.53h-18.8a3 3 0 0 0-2.94 2.25c-1.67 3.92-2.84 7.64-5.19 11.46a49.93 49.93 0 0 1-76.76 10.38l13.42-13.42a6.24 6.24 0 0 0 1.86-4.41 6.31 6.31 0 0 0-6.27-6.27H51.07a6.31 6.31 0 0 0-6.27 6.27v43.86a6.31 6.31 0 0 0 6.27 6.27 6.23 6.23 0 0 0 4.41-1.86l12.63-12.63a75 75 0 0 0 51.5 20.76c36.13 0 64.72-24.18 73-58.84a1.68 1.68 0 0 0 .1-.69 3.15 3.15 0 0 0-3.1-3.13zm-.68-81.46a6.24 6.24 0 0 0-4.41 1.86l-12.73 12.64A76 76 0 0 0 120 44.81c-36.13 0-65 24.08-73.43 58.84v.69a3.15 3.15 0 0 0 3.13 3.13h19.49a3 3 0 0 0 2.94-2.25c1.67-3.92 2.84-7.64 5.19-11.45a50.14 50.14 0 0 1 76.86-10.48L140.66 96.8a6.24 6.24 0 0 0-1.86 4.41 6.31 6.31 0 0 0 6.27 6.27h43.86a6.31 6.31 0 0 0 6.27-6.27V57.34a6.31 6.31 0 0 0-6.27-6.27z"></path>
  </symbol><symbol  viewBox='0 0 240 240' id='daticon-lock'>
    <title>daticon-lock</title><path d="M183.82 92h-9V66.82a55 55 0 1 0-110 0V92h-9a8 8 0 0 0-8 8v96a8 8 0 0 0 8 8h128a8 8 0 0 0 8-8v-96a8 8 0 0 0-8-8zm-99-25.18a35 35 0 1 1 70 0V92h-70zm47 77.71v20.23A8.06 8.06 0 0 1 124 173h-8a8.36 8.36 0 0 1-8.18-8.24v-20.23a15.44 15.44 0 0 1-4.43-11.29 16.51 16.51 0 0 1 33 0 15.57 15.57 0 0 1-4.57 11.29z"></path>
  </symbol><symbol  viewBox='0 0 240 240' id='daticon-open-in-desktop'>
    <defs><style>.a{fill:none;stroke:#000;stroke-linecap:round;stroke-linejoin:round;stroke-width:16px}</style></defs><title>daticon-open-in-desktop</title><path class="a" d="M46 56h148v100H46z"></path><path d="M216 198H24a14 14 0 0 1-14-14v-8h220v8a14 14 0 0 1-14 14z"></path>
  </symbol><symbol  viewBox='0 0 240 240' id='daticon-open-in-finder'>
    <defs><style>.a,.b,.c{fill:none;stroke:#000;stroke-linecap:round;stroke-linejoin:round}.a{stroke-width:16px}.b{stroke-width:20px}.c{stroke-width:24px}</style></defs><title>daticon-open-in-finder</title><path class="a" d="M156 138.52v48.91H8v-124h60v20.26h29.92"></path><circle class="b" cx="152" cy="83.43" r="56"></circle><path class="c" d="M196 127.43l32 32"></path>
  </symbol><symbol  viewBox='0 0 240 240' id='daticon-sad-dat'>
    <defs><style>.a{fill:none;stroke:#000;stroke-linecap:round;stroke-linejoin:round;stroke-width:18px}</style></defs><title>daticon-sad-dat</title><path class="a" d="M120.5 231l-96-55.5v-111l96-55.5 96 55.5v111l-96 55.5m-44.32-91.89a62.14 62.14 0 0 1 87.93 0M73.14 81.39v17.22m94-17.22v17.22"></path>
  </symbol><symbol  viewBox='0 0 240 240' id='daticon-star-dat'>
    <defs><style>.a,.b{stroke:#000;stroke-linecap:round;stroke-linejoin:round;stroke-width:20px}.b{fill:none}</style></defs><title>daticon-star-dat</title><path class="a" d="M173.71 106.05l-34.06 17.9 6.5-37.93-27.56-26.86 38.09-5.54 17.03-34.51 17.04 34.51 38.08 5.54-27.56 26.86 6.51 37.93-34.07-17.9z"></path><path class="b" d="M120.26 19.55l-14.63-8.44-94.4 54.5-.06 108.89 94.33 54.39 94.39-54.5.01-16.89"></path>
  </symbol></svg>