<svg width="287" height="331" fill="none" xmlns="http://www.w3.org/2000/svg"><path d="M283.996 247.139l1.004-.577V84.055l-1.004-.577-139.5-80.095-.996-.572-.996.572-139.5 80.095L2 84.055V246.562l1.004.577 139.5 80.095.996.572.996-.572 139.5-80.095z" fill="#293648" stroke="#2ACA4B" stroke-width="4"/><path d="M40.411 196.039c-3.222 0-6.164-.63-8.825-1.891-2.592-1.261-4.833-3.047-6.724-5.358-1.822-2.382-3.257-5.253-4.308-8.615-.98-3.362-1.471-7.18-1.471-11.452 0-4.273.595-8.09 1.786-11.452 1.26-3.362 2.872-6.199 4.833-8.51 2.031-2.382 4.343-4.203 6.934-5.464 2.662-1.261 5.358-1.891 8.09-1.891 2.942 0 5.358.49 7.25 1.471 1.89.981 3.747 2.311 5.568 3.992l-.63-7.984v-17.756h15.444v73.649H55.75l-1.05-5.148h-.42c-1.822 1.821-3.958 3.362-6.41 4.623-2.451 1.191-4.938 1.786-7.459 1.786zm3.992-12.607c1.681 0 3.187-.351 4.518-1.051 1.401-.701 2.732-1.926 3.993-3.677v-21.328c-1.401-1.261-2.837-2.137-4.308-2.627-1.47-.49-2.907-.735-4.308-.735-2.451 0-4.623 1.19-6.514 3.572-1.89 2.311-2.836 5.953-2.836 10.927 0 5.183.805 8.965 2.416 11.346 1.681 2.382 4.028 3.573 7.04 3.573zM95.175 196.039c-2.382 0-4.553-.42-6.514-1.261-1.892-.77-3.502-1.856-4.833-3.257a16.998 16.998 0 0 1-3.152-5.043c-.7-1.891-1.05-3.957-1.05-6.198 0-5.464 2.31-9.736 6.933-12.818 4.623-3.082 12.083-5.148 22.379-6.199-.14-2.311-.841-4.132-2.101-5.463-1.191-1.401-3.222-2.101-6.094-2.101-2.241 0-4.483.42-6.724 1.26-2.171.841-4.518 1.997-7.04 3.467l-5.568-10.191a55.198 55.198 0 0 1 10.507-4.938c3.712-1.261 7.634-1.891 11.767-1.891 6.724 0 11.837 1.926 15.339 5.779 3.572 3.782 5.358 9.7 5.358 17.755v29.838h-12.607l-1.051-5.358h-.42c-2.242 1.961-4.588 3.572-7.039 4.833-2.452 1.191-5.149 1.786-8.09 1.786zm5.253-11.977c1.751 0 3.257-.385 4.518-1.156 1.26-.77 2.591-1.856 3.992-3.257v-9.14c-5.463.77-9.246 1.891-11.347 3.362-2.101 1.471-3.152 3.222-3.152 5.253 0 1.681.526 2.942 1.576 3.782 1.12.771 2.592 1.156 4.413 1.156zM155.667 196.039c-3.222 0-5.989-.49-8.3-1.471-2.242-.98-4.098-2.346-5.569-4.097-1.401-1.751-2.451-3.853-3.152-6.304-.63-2.522-.945-5.288-.945-8.3v-21.118h-7.145v-11.452l7.985-.63 1.786-13.869h12.818v13.869h12.503v12.082h-12.503v20.908c0 2.942.596 5.078 1.786 6.409 1.261 1.26 2.907 1.891 4.938 1.891.841 0 1.681-.105 2.522-.315.91-.21 1.716-.456 2.416-.736l2.417 11.242c-1.401.42-3.047.841-4.938 1.261-1.891.42-4.098.63-6.619.63zM185.16 161.999c-2.662 0-4.903-.911-6.724-2.732-1.751-1.891-2.627-4.203-2.627-6.934 0-2.802.876-5.113 2.627-6.935 1.821-1.891 4.062-2.836 6.724-2.836s4.868.945 6.619 2.836c1.821 1.822 2.732 4.133 2.732 6.935 0 2.731-.911 5.043-2.732 6.934-1.751 1.821-3.957 2.732-6.619 2.732zm0 34.04c-2.662 0-4.903-.91-6.724-2.731-1.751-1.892-2.627-4.203-2.627-6.935 0-2.801.876-5.113 2.627-6.934 1.821-1.891 4.062-2.837 6.724-2.837s4.868.946 6.619 2.837c1.821 1.821 2.732 4.133 2.732 6.934 0 2.732-.911 5.043-2.732 6.935-1.751 1.821-3.957 2.731-6.619 2.731zM202.265 211.589l21.118-91.406h10.086l-21.118 91.406h-10.086zM237.868 211.589l21.117-91.406h10.087l-21.118 91.406h-10.086z" fill="#2ACA4B"/><path d="M39.256 194.885c-3.221 0-6.163-.631-8.825-1.891-2.591-1.261-4.833-3.047-6.724-5.359-1.821-2.381-3.257-5.253-4.308-8.615-.98-3.362-1.47-7.179-1.47-11.452s.595-8.09 1.786-11.452c1.26-3.362 2.871-6.199 4.832-8.51 2.032-2.381 4.343-4.203 6.935-5.463 2.661-1.261 5.358-1.891 8.09-1.891 2.941 0 5.358.49 7.249 1.47 1.891.981 3.747 2.312 5.568 3.993l-.63-7.985v-17.756h15.444v73.65H54.596l-1.05-5.148h-.421c-1.821 1.821-3.958 3.362-6.41 4.623-2.45 1.19-4.937 1.786-7.459 1.786zm3.993-12.608c1.68 0 3.187-.35 4.518-1.051 1.4-.7 2.731-1.926 3.992-3.677v-21.328c-1.4-1.261-2.837-2.136-4.308-2.626-1.47-.491-2.906-.736-4.307-.736-2.452 0-4.623 1.191-6.514 3.572-1.891 2.312-2.837 5.954-2.837 10.927 0 5.183.806 8.965 2.417 11.347 1.68 2.381 4.027 3.572 7.039 3.572zM94.02 194.885c-2.381 0-4.553-.421-6.514-1.261-1.891-.771-3.502-1.856-4.833-3.257a17.024 17.024 0 0 1-3.152-5.043c-.7-1.891-1.05-3.958-1.05-6.199 0-5.463 2.311-9.736 6.934-12.818 4.623-3.082 12.082-5.148 22.378-6.198-.14-2.312-.84-4.133-2.101-5.464-1.191-1.401-3.222-2.101-6.094-2.101-2.24 0-4.482.42-6.724 1.261-2.17.84-4.517 1.996-7.039 3.467l-5.568-10.191a55.082 55.082 0 0 1 10.506-4.938c3.712-1.261 7.635-1.891 11.767-1.891 6.724 0 11.837 1.926 15.34 5.778 3.572 3.782 5.358 9.701 5.358 17.756v29.838H110.62l-1.05-5.358h-.421c-2.241 1.961-4.588 3.572-7.039 4.833-2.451 1.19-5.148 1.786-8.09 1.786zm5.253-11.978c1.751 0 3.257-.385 4.518-1.155 1.261-.771 2.592-1.856 3.992-3.257v-9.141c-5.463.771-9.245 1.891-11.347 3.362-2.1 1.471-3.151 3.222-3.151 5.253 0 1.681.525 2.942 1.576 3.783 1.12.77 2.591 1.155 4.412 1.155zM154.512 194.885c-3.222 0-5.988-.491-8.3-1.471-2.241-.981-4.097-2.347-5.568-4.098-1.401-1.751-2.452-3.852-3.152-6.304-.631-2.521-.946-5.288-.946-8.3v-21.117h-7.144v-11.452l7.985-.631 1.786-13.868h12.818v13.868h12.502v12.083h-12.502v20.907c0 2.942.595 5.078 1.786 6.409 1.26 1.261 2.906 1.891 4.938 1.891.84 0 1.681-.105 2.521-.315.911-.21 1.716-.455 2.417-.735l2.416 11.242c-1.401.42-3.047.84-4.938 1.26-1.891.421-4.097.631-6.619.631zM184.006 160.844c-2.662 0-4.903-.911-6.725-2.732-1.751-1.891-2.626-4.202-2.626-6.934 0-2.802.875-5.113 2.626-6.934 1.822-1.891 4.063-2.837 6.725-2.837 2.661 0 4.867.946 6.619 2.837 1.821 1.821 2.731 4.132 2.731 6.934 0 2.732-.91 5.043-2.731 6.934-1.752 1.821-3.958 2.732-6.619 2.732zm0 34.041c-2.662 0-4.903-.911-6.725-2.732-1.751-1.891-2.626-4.203-2.626-6.934 0-2.802.875-5.113 2.626-6.934 1.822-1.892 4.063-2.837 6.725-2.837 2.661 0 4.867.945 6.619 2.837 1.821 1.821 2.731 4.132 2.731 6.934 0 2.731-.91 5.043-2.731 6.934-1.752 1.821-3.958 2.732-6.619 2.732zM201.11 210.434l21.118-91.405h10.086l-21.117 91.405H201.11zM236.713 210.434l21.118-91.405h10.086l-21.118 91.405h-10.086z" fill="#fff"/></svg>